<?xml version="1.0" encoding="UTF-8" standalone="no"?>
<!-- Created with Inkscape (http://www.inkscape.org/) -->

<svg
   xmlns:dc="http://purl.org/dc/elements/1.1/"
   xmlns:cc="http://creativecommons.org/ns#"
   xmlns:rdf="http://www.w3.org/1999/02/22-rdf-syntax-ns#"
   xmlns:svg="http://www.w3.org/2000/svg"
   xmlns="http://www.w3.org/2000/svg"
   xmlns:sodipodi="http://sodipodi.sourceforge.net/DTD/sodipodi-0.dtd"
   xmlns:inkscape="http://www.inkscape.org/namespaces/inkscape"
   width="512"
   height="256"
   id="svg2"
   version="1.1"
   inkscape:version="0.48.4 r9939"
   sodipodi:docname="death.svg"
   inkscape:export-filename="F:\Files\Pictures\DragonPunch\death\death10.png"
   inkscape:export-xdpi="90"
   inkscape:export-ydpi="90"
   style="enable-background:new">
  <defs
     id="defs4">
    <marker
       inkscape:stockid="DotS"
       orient="auto"
       refY="0"
       refX="0"
       id="DotS"
       style="overflow:visible">
      <path
         id="path3842"
         d="m -2.5,-1 c 0,2.76 -2.24,5 -5,5 -2.76,0 -5,-2.24 -5,-5 0,-2.76 2.24,-5 5,-5 2.76,0 5,2.24 5,5 z"
         style="fill-rule:evenodd;stroke:#000000;stroke-width:1pt"
         transform="matrix(0.2,0,0,0.2,1.48,0.2)"
         inkscape:connector-curvature="0" />
    </marker>
    <marker
       inkscape:stockid="DotL"
       orient="auto"
       refY="0"
       refX="0"
       id="DotL"
       style="overflow:visible">
      <path
         id="path3836"
         d="m -2.5,-1 c 0,2.76 -2.24,5 -5,5 -2.76,0 -5,-2.24 -5,-5 0,-2.76 2.24,-5 5,-5 2.76,0 5,2.24 5,5 z"
         style="fill-rule:evenodd;stroke:#000000;stroke-width:1pt"
         transform="matrix(0.8,0,0,0.8,5.92,0.8)"
         inkscape:connector-curvature="0" />
    </marker>
    <marker
       inkscape:stockid="DotS"
       orient="auto"
       refY="0"
       refX="0"
       id="DotS-1"
       style="overflow:visible">
      <path
         inkscape:connector-curvature="0"
         id="path3842-7"
         d="m -2.5,-1 c 0,2.76 -2.24,5 -5,5 -2.76,0 -5,-2.24 -5,-5 0,-2.76 2.24,-5 5,-5 2.76,0 5,2.24 5,5 z"
         style="fill-rule:evenodd;stroke:#000000;stroke-width:1pt"
         transform="matrix(0.2,0,0,0.2,1.48,0.2)" />
    </marker>
    <marker
       inkscape:stockid="DotS"
       orient="auto"
       refY="0"
       refX="0"
       id="marker4781"
       style="overflow:visible">
      <path
         inkscape:connector-curvature="0"
         id="path4783"
         d="m -2.5,-1 c 0,2.76 -2.24,5 -5,5 -2.76,0 -5,-2.24 -5,-5 0,-2.76 2.24,-5 5,-5 2.76,0 5,2.24 5,5 z"
         style="fill-rule:evenodd;stroke:#000000;stroke-width:1pt"
         transform="matrix(0.2,0,0,0.2,1.48,0.2)" />
    </marker>
    <marker
       inkscape:stockid="DotS"
       orient="auto"
       refY="0"
       refX="0"
       id="DotS-11"
       style="overflow:visible">
      <path
         inkscape:connector-curvature="0"
         id="path3842-5"
         d="m -2.5,-1 c 0,2.76 -2.24,5 -5,5 -2.76,0 -5,-2.24 -5,-5 0,-2.76 2.24,-5 5,-5 2.76,0 5,2.24 5,5 z"
         style="fill-rule:evenodd;stroke:#000000;stroke-width:1pt"
         transform="matrix(0.2,0,0,0.2,1.48,0.2)" />
    </marker>
    <marker
       inkscape:stockid="DotS"
       orient="auto"
       refY="0"
       refX="0"
       id="marker4849"
       style="overflow:visible">
      <path
         inkscape:connector-curvature="0"
         id="path4851"
         d="m -2.5,-1 c 0,2.76 -2.24,5 -5,5 -2.76,0 -5,-2.24 -5,-5 0,-2.76 2.24,-5 5,-5 2.76,0 5,2.24 5,5 z"
         style="fill-rule:evenodd;stroke:#000000;stroke-width:1pt"
         transform="matrix(0.2,0,0,0.2,1.48,0.2)" />
    </marker>
    <marker
       inkscape:stockid="DotS"
       orient="auto"
       refY="0"
       refX="0"
       id="DotS-2"
       style="overflow:visible">
      <path
         inkscape:connector-curvature="0"
         id="path3842-3"
         d="m -2.5,-1 c 0,2.76 -2.24,5 -5,5 -2.76,0 -5,-2.24 -5,-5 0,-2.76 2.24,-5 5,-5 2.76,0 5,2.24 5,5 z"
         style="fill-rule:evenodd;stroke:#000000;stroke-width:1pt"
         transform="matrix(0.2,0,0,0.2,1.48,0.2)" />
    </marker>
    <marker
       inkscape:stockid="DotS"
       orient="auto"
       refY="0"
       refX="0"
       id="marker4903"
       style="overflow:visible">
      <path
         inkscape:connector-curvature="0"
         id="path4905"
         d="m -2.5,-1 c 0,2.76 -2.24,5 -5,5 -2.76,0 -5,-2.24 -5,-5 0,-2.76 2.24,-5 5,-5 2.76,0 5,2.24 5,5 z"
         style="fill-rule:evenodd;stroke:#000000;stroke-width:1pt"
         transform="matrix(0.2,0,0,0.2,1.48,0.2)" />
    </marker>
    <marker
       inkscape:stockid="DotS"
       orient="auto"
       refY="0"
       refX="0"
       id="DotS-5"
       style="overflow:visible">
      <path
         inkscape:connector-curvature="0"
         id="path3842-76"
         d="m -2.5,-1 c 0,2.76 -2.24,5 -5,5 -2.76,0 -5,-2.24 -5,-5 0,-2.76 2.24,-5 5,-5 2.76,0 5,2.24 5,5 z"
         style="fill-rule:evenodd;stroke:#000000;stroke-width:1pt"
         transform="matrix(0.2,0,0,0.2,1.48,0.2)" />
    </marker>
    <marker
       inkscape:stockid="DotS"
       orient="auto"
       refY="0"
       refX="0"
       id="marker4969"
       style="overflow:visible">
      <path
         inkscape:connector-curvature="0"
         id="path4971"
         d="m -2.5,-1 c 0,2.76 -2.24,5 -5,5 -2.76,0 -5,-2.24 -5,-5 0,-2.76 2.24,-5 5,-5 2.76,0 5,2.24 5,5 z"
         style="fill-rule:evenodd;stroke:#000000;stroke-width:1pt"
         transform="matrix(0.2,0,0,0.2,1.48,0.2)" />
    </marker>
    <marker
       inkscape:stockid="DotS"
       orient="auto"
       refY="0"
       refX="0"
       id="DotS-9"
       style="overflow:visible">
      <path
         inkscape:connector-curvature="0"
         id="path3842-54"
         d="m -2.5,-1 c 0,2.76 -2.24,5 -5,5 -2.76,0 -5,-2.24 -5,-5 0,-2.76 2.24,-5 5,-5 2.76,0 5,2.24 5,5 z"
         style="fill-rule:evenodd;stroke:#000000;stroke-width:1pt"
         transform="matrix(0.2,0,0,0.2,1.48,0.2)" />
    </marker>
    <marker
       inkscape:stockid="DotS"
       orient="auto"
       refY="0"
       refX="0"
       id="marker5025"
       style="overflow:visible">
      <path
         inkscape:connector-curvature="0"
         id="path5027"
         d="m -2.5,-1 c 0,2.76 -2.24,5 -5,5 -2.76,0 -5,-2.24 -5,-5 0,-2.76 2.24,-5 5,-5 2.76,0 5,2.24 5,5 z"
         style="fill-rule:evenodd;stroke:#000000;stroke-width:1pt"
         transform="matrix(0.2,0,0,0.2,1.48,0.2)" />
    </marker>
    <marker
       inkscape:stockid="DotS"
       orient="auto"
       refY="0"
       refX="0"
       id="DotS-4"
       style="overflow:visible">
      <path
         inkscape:connector-curvature="0"
         id="path3842-1"
         d="m -2.5,-1 c 0,2.76 -2.24,5 -5,5 -2.76,0 -5,-2.24 -5,-5 0,-2.76 2.24,-5 5,-5 2.76,0 5,2.24 5,5 z"
         style="fill-rule:evenodd;stroke:#000000;stroke-width:1pt"
         transform="matrix(0.2,0,0,0.2,1.48,0.2)" />
    </marker>
    <marker
       inkscape:stockid="DotS"
       orient="auto"
       refY="0"
       refX="0"
       id="marker5079"
       style="overflow:visible">
      <path
         inkscape:connector-curvature="0"
         id="path5081"
         d="m -2.5,-1 c 0,2.76 -2.24,5 -5,5 -2.76,0 -5,-2.24 -5,-5 0,-2.76 2.24,-5 5,-5 2.76,0 5,2.24 5,5 z"
         style="fill-rule:evenodd;stroke:#000000;stroke-width:1pt"
         transform="matrix(0.2,0,0,0.2,1.48,0.2)" />
    </marker>
    <marker
       inkscape:stockid="DotS"
       orient="auto"
       refY="0"
       refX="0"
       id="DotS-27"
       style="overflow:visible">
      <path
         inkscape:connector-curvature="0"
         id="path3842-79"
         d="m -2.5,-1 c 0,2.76 -2.24,5 -5,5 -2.76,0 -5,-2.24 -5,-5 0,-2.76 2.24,-5 5,-5 2.76,0 5,2.24 5,5 z"
         style="fill-rule:evenodd;stroke:#000000;stroke-width:1pt"
         transform="matrix(0.2,0,0,0.2,1.48,0.2)" />
    </marker>
    <marker
       inkscape:stockid="DotS"
       orient="auto"
       refY="0"
       refX="0"
       id="marker5133"
       style="overflow:visible">
      <path
         inkscape:connector-curvature="0"
         id="path5135"
         d="m -2.5,-1 c 0,2.76 -2.24,5 -5,5 -2.76,0 -5,-2.24 -5,-5 0,-2.76 2.24,-5 5,-5 2.76,0 5,2.24 5,5 z"
         style="fill-rule:evenodd;stroke:#000000;stroke-width:1pt"
         transform="matrix(0.2,0,0,0.2,1.48,0.2)" />
    </marker>
    <marker
       inkscape:stockid="DotS"
       orient="auto"
       refY="0"
       refX="0"
       id="DotS-50"
       style="overflow:visible">
      <path
         inkscape:connector-curvature="0"
         id="path3842-2"
         d="m -2.5,-1 c 0,2.76 -2.24,5 -5,5 -2.76,0 -5,-2.24 -5,-5 0,-2.76 2.24,-5 5,-5 2.76,0 5,2.24 5,5 z"
         style="fill-rule:evenodd;stroke:#000000;stroke-width:1pt"
         transform="matrix(0.2,0,0,0.2,1.48,0.2)" />
    </marker>
    <marker
       inkscape:stockid="DotS"
       orient="auto"
       refY="0"
       refX="0"
       id="marker5187"
       style="overflow:visible">
      <path
         inkscape:connector-curvature="0"
         id="path5189"
         d="m -2.5,-1 c 0,2.76 -2.24,5 -5,5 -2.76,0 -5,-2.24 -5,-5 0,-2.76 2.24,-5 5,-5 2.76,0 5,2.24 5,5 z"
         style="fill-rule:evenodd;stroke:#000000;stroke-width:1pt"
         transform="matrix(0.2,0,0,0.2,1.48,0.2)" />
    </marker>
    <marker
       inkscape:stockid="DotS"
       orient="auto"
       refY="0"
       refX="0"
       id="DotS-8"
       style="overflow:visible">
      <path
         inkscape:connector-curvature="0"
         id="path3842-6"
         d="m -2.5,-1 c 0,2.76 -2.24,5 -5,5 -2.76,0 -5,-2.24 -5,-5 0,-2.76 2.24,-5 5,-5 2.76,0 5,2.24 5,5 z"
         style="fill-rule:evenodd;stroke:#000000;stroke-width:1pt"
         transform="matrix(0.2,0,0,0.2,1.48,0.2)" />
    </marker>
    <marker
       inkscape:stockid="DotS"
       orient="auto"
       refY="0"
       refX="0"
       id="marker5241"
       style="overflow:visible">
      <path
         inkscape:connector-curvature="0"
         id="path5243"
         d="m -2.5,-1 c 0,2.76 -2.24,5 -5,5 -2.76,0 -5,-2.24 -5,-5 0,-2.76 2.24,-5 5,-5 2.76,0 5,2.24 5,5 z"
         style="fill-rule:evenodd;stroke:#000000;stroke-width:1pt"
         transform="matrix(0.2,0,0,0.2,1.48,0.2)" />
    </marker>
    <marker
       inkscape:stockid="DotS"
       orient="auto"
       refY="0"
       refX="0"
       id="DotS-6"
       style="overflow:visible">
      <path
         inkscape:connector-curvature="0"
         id="path3842-13"
         d="m -2.5,-1 c 0,2.76 -2.24,5 -5,5 -2.76,0 -5,-2.24 -5,-5 0,-2.76 2.24,-5 5,-5 2.76,0 5,2.24 5,5 z"
         style="fill-rule:evenodd;stroke:#000000;stroke-width:1pt"
         transform="matrix(0.2,0,0,0.2,1.48,0.2)" />
    </marker>
    <marker
       inkscape:stockid="DotS"
       orient="auto"
       refY="0"
       refX="0"
       id="marker5315"
       style="overflow:visible">
      <path
         inkscape:connector-curvature="0"
         id="path5317"
         d="m -2.5,-1 c 0,2.76 -2.24,5 -5,5 -2.76,0 -5,-2.24 -5,-5 0,-2.76 2.24,-5 5,-5 2.76,0 5,2.24 5,5 z"
         style="fill-rule:evenodd;stroke:#000000;stroke-width:1pt"
         transform="matrix(0.2,0,0,0.2,1.48,0.2)" />
    </marker>
    <marker
       inkscape:stockid="DotS"
       orient="auto"
       refY="0"
       refX="0"
       id="DotS-17"
       style="overflow:visible">
      <path
         inkscape:connector-curvature="0"
         id="path3842-4"
         d="m -2.5,-1 c 0,2.76 -2.24,5 -5,5 -2.76,0 -5,-2.24 -5,-5 0,-2.76 2.24,-5 5,-5 2.76,0 5,2.24 5,5 z"
         style="fill-rule:evenodd;stroke:#000000;stroke-width:1pt"
         transform="matrix(0.2,0,0,0.2,1.48,0.2)" />
    </marker>
    <marker
       inkscape:stockid="DotS"
       orient="auto"
       refY="0"
       refX="0"
       id="marker3101"
       style="overflow:visible">
      <path
         inkscape:connector-curvature="0"
         id="path3103"
         d="m -2.5,-1 c 0,2.76 -2.24,5 -5,5 -2.76,0 -5,-2.24 -5,-5 0,-2.76 2.24,-5 5,-5 2.76,0 5,2.24 5,5 z"
         style="fill-rule:evenodd;stroke:#000000;stroke-width:1pt"
         transform="matrix(0.2,0,0,0.2,1.48,0.2)" />
    </marker>
    <marker
       inkscape:stockid="DotS"
       orient="auto"
       refY="0"
       refX="0"
       id="DotS-24"
       style="overflow:visible">
      <path
         inkscape:connector-curvature="0"
         id="path3842-55"
         d="m -2.5,-1 c 0,2.76 -2.24,5 -5,5 -2.76,0 -5,-2.24 -5,-5 0,-2.76 2.24,-5 5,-5 2.76,0 5,2.24 5,5 z"
         style="fill-rule:evenodd;stroke:#000000;stroke-width:1pt"
         transform="matrix(0.2,0,0,0.2,1.48,0.2)" />
    </marker>
    <marker
       inkscape:stockid="DotS"
       orient="auto"
       refY="0"
       refX="0"
       id="marker4067"
       style="overflow:visible">
      <path
         inkscape:connector-curvature="0"
         id="path4069"
         d="m -2.5,-1 c 0,2.76 -2.24,5 -5,5 -2.76,0 -5,-2.24 -5,-5 0,-2.76 2.24,-5 5,-5 2.76,0 5,2.24 5,5 z"
         style="fill-rule:evenodd;stroke:#000000;stroke-width:1pt"
         transform="matrix(0.2,0,0,0.2,1.48,0.2)" />
    </marker>
    <marker
       inkscape:stockid="DotS"
       orient="auto"
       refY="0"
       refX="0"
       id="DotS-276"
       style="overflow:visible">
      <path
         inkscape:connector-curvature="0"
         id="path3842-14"
         d="m -2.5,-1 c 0,2.76 -2.24,5 -5,5 -2.76,0 -5,-2.24 -5,-5 0,-2.76 2.24,-5 5,-5 2.76,0 5,2.24 5,5 z"
         style="fill-rule:evenodd;stroke:#000000;stroke-width:1pt"
         transform="matrix(0.2,0,0,0.2,1.48,0.2)" />
    </marker>
    <marker
       inkscape:stockid="DotS"
       orient="auto"
       refY="0"
       refX="0"
       id="marker4125"
       style="overflow:visible">
      <path
         inkscape:connector-curvature="0"
         id="path4127"
         d="m -2.5,-1 c 0,2.76 -2.24,5 -5,5 -2.76,0 -5,-2.24 -5,-5 0,-2.76 2.24,-5 5,-5 2.76,0 5,2.24 5,5 z"
         style="fill-rule:evenodd;stroke:#000000;stroke-width:1pt"
         transform="matrix(0.2,0,0,0.2,1.48,0.2)" />
    </marker>
    <marker
       inkscape:stockid="DotS"
       orient="auto"
       refY="0"
       refX="0"
       id="DotS-68"
       style="overflow:visible">
      <path
         id="path3842-57"
         d="m -2.5,-1 c 0,2.76 -2.24,5 -5,5 -2.76,0 -5,-2.24 -5,-5 0,-2.76 2.24,-5 5,-5 2.76,0 5,2.24 5,5 z"
         style="fill-rule:evenodd;stroke:#000000;stroke-width:1pt"
         transform="matrix(0.2,0,0,0.2,1.48,0.2)"
         inkscape:connector-curvature="0" />
    </marker>
    <marker
       inkscape:stockid="DotS"
       orient="auto"
       refY="0"
       refX="0"
       id="marker4195"
       style="overflow:visible">
      <path
         id="path4197"
         d="m -2.5,-1 c 0,2.76 -2.24,5 -5,5 -2.76,0 -5,-2.24 -5,-5 0,-2.76 2.24,-5 5,-5 2.76,0 5,2.24 5,5 z"
         style="fill-rule:evenodd;stroke:#000000;stroke-width:1pt"
         transform="matrix(0.2,0,0,0.2,1.48,0.2)"
         inkscape:connector-curvature="0" />
    </marker>
    <marker
       inkscape:stockid="DotS"
       orient="auto"
       refY="0"
       refX="0"
       id="DotS-7"
       style="overflow:visible">
      <path
         id="path3842-9"
         d="m -2.5,-1 c 0,2.76 -2.24,5 -5,5 -2.76,0 -5,-2.24 -5,-5 0,-2.76 2.24,-5 5,-5 2.76,0 5,2.24 5,5 z"
         style="fill-rule:evenodd;stroke:#000000;stroke-width:1pt"
         transform="matrix(0.2,0,0,0.2,1.48,0.2)"
         inkscape:connector-curvature="0" />
    </marker>
    <marker
       inkscape:stockid="DotS"
       orient="auto"
       refY="0"
       refX="0"
       id="marker4249"
       style="overflow:visible">
      <path
         id="path4251"
         d="m -2.5,-1 c 0,2.76 -2.24,5 -5,5 -2.76,0 -5,-2.24 -5,-5 0,-2.76 2.24,-5 5,-5 2.76,0 5,2.24 5,5 z"
         style="fill-rule:evenodd;stroke:#000000;stroke-width:1pt"
         transform="matrix(0.2,0,0,0.2,1.48,0.2)"
         inkscape:connector-curvature="0" />
    </marker>
    <marker
       inkscape:stockid="DotS"
       orient="auto"
       refY="0"
       refX="0"
       id="DotS-3"
       style="overflow:visible">
      <path
         id="path3842-34"
         d="m -2.5,-1 c 0,2.76 -2.24,5 -5,5 -2.76,0 -5,-2.24 -5,-5 0,-2.76 2.24,-5 5,-5 2.76,0 5,2.24 5,5 z"
         style="fill-rule:evenodd;stroke:#000000;stroke-width:1pt"
         transform="matrix(0.2,0,0,0.2,1.48,0.2)"
         inkscape:connector-curvature="0" />
    </marker>
    <marker
       inkscape:stockid="DotS"
       orient="auto"
       refY="0"
       refX="0"
       id="marker4303"
       style="overflow:visible">
      <path
         id="path4305"
         d="m -2.5,-1 c 0,2.76 -2.24,5 -5,5 -2.76,0 -5,-2.24 -5,-5 0,-2.76 2.24,-5 5,-5 2.76,0 5,2.24 5,5 z"
         style="fill-rule:evenodd;stroke:#000000;stroke-width:1pt"
         transform="matrix(0.2,0,0,0.2,1.48,0.2)"
         inkscape:connector-curvature="0" />
    </marker>
    <marker
       inkscape:stockid="DotS"
       orient="auto"
       refY="0"
       refX="0"
       id="DotS-42"
       style="overflow:visible">
      <path
         id="path3842-77"
         d="m -2.5,-1 c 0,2.76 -2.24,5 -5,5 -2.76,0 -5,-2.24 -5,-5 0,-2.76 2.24,-5 5,-5 2.76,0 5,2.24 5,5 z"
         style="fill-rule:evenodd;stroke:#000000;stroke-width:1pt"
         transform="matrix(0.2,0,0,0.2,1.48,0.2)"
         inkscape:connector-curvature="0" />
    </marker>
    <marker
       inkscape:stockid="DotS"
       orient="auto"
       refY="0"
       refX="0"
       id="marker4357"
       style="overflow:visible">
      <path
         id="path4359"
         d="m -2.5,-1 c 0,2.76 -2.24,5 -5,5 -2.76,0 -5,-2.24 -5,-5 0,-2.76 2.24,-5 5,-5 2.76,0 5,2.24 5,5 z"
         style="fill-rule:evenodd;stroke:#000000;stroke-width:1pt"
         transform="matrix(0.2,0,0,0.2,1.48,0.2)"
         inkscape:connector-curvature="0" />
    </marker>
    <marker
       inkscape:stockid="DotS"
       orient="auto"
       refY="0"
       refX="0"
       id="DotS-65"
       style="overflow:visible">
      <path
         id="path3842-0"
         d="m -2.5,-1 c 0,2.76 -2.24,5 -5,5 -2.76,0 -5,-2.24 -5,-5 0,-2.76 2.24,-5 5,-5 2.76,0 5,2.24 5,5 z"
         style="fill-rule:evenodd;stroke:#000000;stroke-width:1pt"
         transform="matrix(0.2,0,0,0.2,1.48,0.2)"
         inkscape:connector-curvature="0" />
    </marker>
    <marker
       inkscape:stockid="DotS"
       orient="auto"
       refY="0"
       refX="0"
       id="marker4411"
       style="overflow:visible">
      <path
         id="path4413"
         d="m -2.5,-1 c 0,2.76 -2.24,5 -5,5 -2.76,0 -5,-2.24 -5,-5 0,-2.76 2.24,-5 5,-5 2.76,0 5,2.24 5,5 z"
         style="fill-rule:evenodd;stroke:#000000;stroke-width:1pt"
         transform="matrix(0.2,0,0,0.2,1.48,0.2)"
         inkscape:connector-curvature="0" />
    </marker>
    <marker
       inkscape:stockid="DotS"
       orient="auto"
       refY="0"
       refX="0"
       id="DotS-48"
       style="overflow:visible">
      <path
         id="path3842-65"
         d="m -2.5,-1 c 0,2.76 -2.24,5 -5,5 -2.76,0 -5,-2.24 -5,-5 0,-2.76 2.24,-5 5,-5 2.76,0 5,2.24 5,5 z"
         style="fill-rule:evenodd;stroke:#000000;stroke-width:1pt"
         transform="matrix(0.2,0,0,0.2,1.48,0.2)"
         inkscape:connector-curvature="0" />
    </marker>
    <marker
       inkscape:stockid="DotS"
       orient="auto"
       refY="0"
       refX="0"
       id="marker4465"
       style="overflow:visible">
      <path
         id="path4467"
         d="m -2.5,-1 c 0,2.76 -2.24,5 -5,5 -2.76,0 -5,-2.24 -5,-5 0,-2.76 2.24,-5 5,-5 2.76,0 5,2.24 5,5 z"
         style="fill-rule:evenodd;stroke:#000000;stroke-width:1pt"
         transform="matrix(0.2,0,0,0.2,1.48,0.2)"
         inkscape:connector-curvature="0" />
    </marker>
  </defs>
  <sodipodi:namedview
     id="base"
     pagecolor="#ffffff"
     bordercolor="#666666"
     borderopacity="1.0"
     inkscape:pageopacity="0.0"
     inkscape:pageshadow="2"
     inkscape:zoom="1.979899"
     inkscape:cx="277.58408"
     inkscape:cy="37.362974"
     inkscape:document-units="px"
     inkscape:current-layer="layer8"
     showgrid="false"
     inkscape:window-width="1920"
     inkscape:window-height="1017"
     inkscape:window-x="-8"
     inkscape:window-y="-8"
     inkscape:window-maximized="1"
     inkscape:object-paths="false"
     showguides="true"
     inkscape:guide-bbox="true" />
  <metadata
     id="metadata7">
    <rdf:RDF>
      <cc:Work
         rdf:about="">
        <dc:format>image/svg+xml</dc:format>
        <dc:type
           rdf:resource="http://purl.org/dc/dcmitype/StillImage" />
        <dc:title></dc:title>
      </cc:Work>
    </rdf:RDF>
  </metadata>
  <g
     inkscape:groupmode="layer"
     id="layer2"
     inkscape:label="Frame 1"
     transform="translate(0,-796.36218)"
     style="display:none">
    <g
       id="g4831"
       transform="translate(258.99971,0)">
      <path
         transform="matrix(0.25,0,0,0.25,29.37486,766.41449)"
         d="m 471.42856,283.79074 a 100,100 0 1 1 -200,0 100,100 0 1 1 200,0 z"
         sodipodi:ry="100"
         sodipodi:rx="100"
         sodipodi:cy="283.79074"
         sodipodi:cx="371.42856"
         id="path2995"
         style="fill:#000000;stroke:none"
         sodipodi:type="arc" />
      <path
         sodipodi:nodetypes="ccc"
         inkscape:connector-curvature="0"
         id="path2997"
         d="m 120.73452,860.79777 0,98.69744 35.52936,94.84099"
         style="fill:none;stroke:#000000;stroke-width:4;stroke-linecap:butt;stroke-linejoin:miter;stroke-miterlimit:4;stroke-opacity:1;stroke-dasharray:none" />
      <path
         sodipodi:nodetypes="ccccc"
         transform="translate(0,796.36218)"
         inkscape:connector-curvature="0"
         id="path3767"
         d="M 149.80131,82.168591 134.34699,124.97934 121.07143,69.256339 154.86695,110.53082 164.7549,68.893032"
         style="fill:none;stroke:#000000;stroke-width:4;stroke-linecap:butt;stroke-linejoin:miter;stroke-miterlimit:4;stroke-opacity:1;stroke-dasharray:none;marker-start:url(#DotS);marker-mid:none;marker-end:url(#DotS)" />
      <path
         sodipodi:nodetypes="ccc"
         transform="translate(0,796.36218)"
         inkscape:connector-curvature="0"
         id="path3769"
         d="M 120.73526,163.135 105,219.92857 73.214286,256.71429"
         style="fill:none;stroke:#000000;stroke-width:4;stroke-linecap:butt;stroke-linejoin:miter;stroke-miterlimit:4;stroke-opacity:1;stroke-dasharray:none" />
    </g>
  </g>
  <g
     inkscape:groupmode="layer"
     id="layer1"
     inkscape:label="Frame 2"
     style="display:none">
    <path
       sodipodi:type="arc"
       style="fill:#0c0c0c;fill-opacity:1;stroke:#0c0c0c;stroke-opacity:1"
       id="path2995-9"
       sodipodi:cx="371.42856"
       sodipodi:cy="283.79074"
       sodipodi:rx="100"
       sodipodi:ry="100"
       d="m 471.42856,283.79074 a 100,100 0 1 1 -200,0 100,100 0 1 1 200,0 z"
       transform="matrix(0.25,0,0,0.25,274.2636,-26.412156)" />
    <path
       style="fill:none;stroke:#0c0c0c;stroke-width:4;stroke-linecap:butt;stroke-linejoin:miter;stroke-miterlimit:4;stroke-opacity:1;stroke-dasharray:none"
       d="m 368.14864,66.455895 8.5863,96.677135 35.52936,94.84099"
       id="path2997-4"
       inkscape:connector-curvature="0"
       sodipodi:nodetypes="ccc" />
    <path
       style="fill:none;stroke:#0c0c0c;stroke-width:4;stroke-linecap:butt;stroke-linejoin:miter;stroke-miterlimit:4;stroke-opacity:1;stroke-dasharray:none;marker-start:url(#DotS);marker-mid:none;marker-end:url(#DotS)"
       d="M 408.83219,93.280269 382.77127,124.47426 369.49571,68.751263 403.29123,110.02574 427.82639,80.509786"
       id="path3767-8"
       inkscape:connector-curvature="0"
       sodipodi:nodetypes="ccccc" />
    <path
       style="fill:none;stroke:#0c0c0c;stroke-width:4;stroke-linecap:butt;stroke-linejoin:miter;stroke-miterlimit:4;stroke-opacity:1;stroke-dasharray:none"
       d="M 376.73568,163.135 362.01057,210.8372 337.801,256.71429"
       id="path3769-8"
       inkscape:connector-curvature="0"
       sodipodi:nodetypes="ccc" />
  </g>
  <g
     inkscape:groupmode="layer"
     id="layer3"
     inkscape:label="Frame 3"
     style="display:none">
    <path
       sodipodi:type="arc"
       style="fill:#181818;fill-opacity:1;stroke:#181818;stroke-opacity:1"
       id="path2995-9-7"
       sodipodi:cx="371.42856"
       sodipodi:cy="283.79074"
       sodipodi:rx="100"
       sodipodi:ry="100"
       d="m 471.42856,283.79074 a 100,100 0 1 1 -200,0 100,100 0 1 1 200,0 z"
       transform="matrix(0.25,0,0,0.25,260.12086,-21.361393)" />
    <path
       style="fill:none;stroke:#181818;stroke-width:4;stroke-linecap:butt;stroke-linejoin:miter;stroke-miterlimit:4;stroke-opacity:1;stroke-dasharray:none"
       d="m 356.53128,72.51681 20.20305,90.61622 35.52936,94.84099"
       id="path2997-4-1"
       inkscape:connector-curvature="0"
       sodipodi:nodetypes="ccc" />
    <path
       style="fill:none;stroke:#181818;stroke-width:4;stroke-linecap:butt;stroke-linejoin:miter;stroke-miterlimit:4;stroke-opacity:1;stroke-dasharray:none;marker-start:url(#DotS);marker-mid:none;marker-end:url(#DotS)"
       d="m 399.74021,113.48332 -30.60661,16.0417 -13.27556,-55.722994 33.79552,41.274474 28.57577,-5.77737"
       id="path3767-8-1"
       inkscape:connector-curvature="0"
       sodipodi:nodetypes="ccccc" />
    <path
       style="fill:none;stroke:#181818;stroke-width:4;stroke-linecap:butt;stroke-linejoin:miter;stroke-miterlimit:4;stroke-opacity:1;stroke-dasharray:none"
       d="m 376.73507,163.135 -10.6845,52.24789 -13.09789,40.82632"
       id="path3769-8-5"
       inkscape:connector-curvature="0"
       sodipodi:nodetypes="ccc" />
  </g>
  <g
     inkscape:groupmode="layer"
     id="layer4"
     inkscape:label="Frame 4"
     style="display:none">
    <path
       sodipodi:type="arc"
       style="fill:#242424;fill-opacity:1;stroke:#242424;stroke-opacity:1"
       id="path2995-9-7-3"
       sodipodi:cx="371.42856"
       sodipodi:cy="283.79074"
       sodipodi:rx="100"
       sodipodi:ry="100"
       d="m 471.42856,283.79074 a 100,100 0 1 1 -200,0 100,100 0 1 1 200,0 z"
       transform="matrix(0.25,0,0,0.25,236.38228,-12.27002)" />
    <path
       style="fill:none;stroke:#242424;stroke-width:4;stroke-linecap:butt;stroke-linejoin:miter;stroke-miterlimit:4;stroke-opacity:1;stroke-dasharray:none"
       d="M 336.32823,82.113259 415.29415,255.95371"
       id="path2997-4-1-2"
       inkscape:connector-curvature="0"
       sodipodi:nodetypes="cc" />
    <path
       style="fill:none;stroke:#242424;stroke-width:4;stroke-linecap:butt;stroke-linejoin:miter;stroke-miterlimit:4;stroke-opacity:1;stroke-dasharray:none;marker-start:url(#DotS);marker-mid:none;marker-end:url(#DotS)"
       d="m 384.58792,148.83865 -34.64722,-11.73749 -13.27556,-55.72299 18.64323,40.26432 42.21283,16.95106"
       id="path3767-8-1-2"
       inkscape:connector-curvature="0"
       sodipodi:nodetypes="ccccc" />
    <path
       style="fill:none;stroke:#242424;stroke-width:4;stroke-linecap:butt;stroke-linejoin:miter;stroke-miterlimit:4;stroke-opacity:1;stroke-dasharray:none"
       d="m 373.70461,164.65023 -2.60328,52.50043 -7.79459,43.60424"
       id="path3769-8-5-1"
       inkscape:connector-curvature="0"
       sodipodi:nodetypes="ccc" />
  </g>
  <g
     inkscape:groupmode="layer"
     id="layer5"
     inkscape:label="Frame 5"
     style="display:none">
    <path
       sodipodi:type="arc"
       style="fill:#303030;fill-opacity:1;stroke:#303030;stroke-opacity:1"
       id="path2995-9-7-3-1"
       sodipodi:cx="371.42856"
       sodipodi:cy="283.79074"
       sodipodi:rx="100"
       sodipodi:ry="100"
       d="m 471.42856,283.79074 a 100,100 0 1 1 -200,0 100,100 0 1 1 200,0 z"
       transform="matrix(0.25,0,0,0.25,215.67415,1.3670393)" />
    <path
       style="fill:none;stroke:#303030;stroke-width:4;stroke-linecap:butt;stroke-linejoin:miter;stroke-miterlimit:4;stroke-opacity:1;stroke-dasharray:none"
       d="M 316.12518,93.730013 415.29415,255.95371"
       id="path2997-4-1-2-8"
       inkscape:connector-curvature="0"
       sodipodi:nodetypes="cc" />
    <path
       style="fill:none;stroke:#303030;stroke-width:4;stroke-linecap:butt;stroke-linejoin:miter;stroke-miterlimit:4;stroke-opacity:1;stroke-dasharray:none;marker-start:url(#DotS);marker-mid:none;marker-end:url(#DotS)"
       d="m 356.30365,180.15338 -31.61676,-31.94054 -8.2248,-51.682382 16.11785,48.850622 36.65699,26.54751"
       id="path3767-8-1-2-9"
       inkscape:connector-curvature="0"
       sodipodi:nodetypes="ccccc" />
    <path
       style="fill:none;stroke:#303030;stroke-width:4;stroke-linecap:butt;stroke-linejoin:miter;stroke-miterlimit:4;stroke-opacity:1;stroke-dasharray:none"
       d="m 357.03709,161.61977 21.1353,49.46997 3.82217,56.73623"
       id="path3769-8-5-1-2"
       inkscape:connector-curvature="0"
       sodipodi:nodetypes="ccc" />
  </g>
  <g
     inkscape:groupmode="layer"
     id="layer6"
     inkscape:label="Frame 6"
     style="display:none">
    <path
       sodipodi:type="arc"
       style="fill:#3c3c3c;fill-opacity:1;stroke:#3c3c3c;stroke-opacity:1"
       id="path2995-9-7-3-1-4"
       sodipodi:cx="371.42856"
       sodipodi:cy="283.79074"
       sodipodi:rx="100"
       sodipodi:ry="100"
       d="m 471.42856,283.79074 a 100,100 0 1 1 -200,0 100,100 0 1 1 200,0 z"
       transform="matrix(0.25,0,0,0.25,187.89495,20.054861)" />
    <path
       style="fill:none;stroke:#3c3c3c;stroke-width:4;stroke-linecap:butt;stroke-linejoin:miter;stroke-miterlimit:4;stroke-opacity:1;stroke-dasharray:none"
       d="M 293.90182,108.8823 415.29415,255.95371"
       id="path2997-4-1-2-8-3"
       inkscape:connector-curvature="0"
       sodipodi:nodetypes="cc" />
    <path
       style="fill:none;stroke:#3c3c3c;stroke-width:4;stroke-linecap:butt;stroke-linejoin:miter;stroke-miterlimit:4;stroke-opacity:1;stroke-dasharray:none;marker-start:url(#DotS);marker-mid:none;marker-end:url(#DotS)"
       d="m 327.00922,198.84121 -23.03046,-36.48623 -8.2248,-51.68239 16.11785,48.85063 30.59607,27.05259"
       id="path3767-8-1-2-9-1"
       inkscape:connector-curvature="0"
       sodipodi:nodetypes="ccccc" />
    <path
       style="fill:none;stroke:#3c3c3c;stroke-width:4;stroke-linecap:butt;stroke-linejoin:miter;stroke-miterlimit:4;stroke-opacity:1;stroke-dasharray:none"
       d="m 347.44064,174.24668 30.73175,44.92428 15.43892,47.64486"
       id="path3769-8-5-1-2-2"
       inkscape:connector-curvature="0"
       sodipodi:nodetypes="ccc" />
  </g>
  <g
     inkscape:groupmode="layer"
     id="layer7"
     inkscape:label="Frame 7"
     style="display:none">
    <path
       sodipodi:type="arc"
       style="fill:#484848;fill-opacity:1;stroke:#484848;stroke-opacity:1"
       id="path2995-9-7-3-1-4-1"
       sodipodi:cx="371.42856"
       sodipodi:cy="283.79074"
       sodipodi:rx="100"
       sodipodi:ry="100"
       d="m 471.42856,283.79074 a 100,100 0 1 1 -200,0 100,100 0 1 1 200,0 z"
       transform="matrix(0.25,0,0,0.25,158.60053,58.440657)" />
    <path
       style="fill:none;stroke:#484848;stroke-width:4;stroke-linecap:butt;stroke-linejoin:miter;stroke-miterlimit:4;stroke-opacity:1;stroke-dasharray:none"
       d="M 268.14293,142.21734 424.38552,263.02478"
       id="path2997-4-1-2-8-3-3"
       inkscape:connector-curvature="0"
       sodipodi:nodetypes="cc" />
    <path
       style="fill:none;stroke:#484848;stroke-width:4;stroke-linecap:butt;stroke-linejoin:miter;stroke-miterlimit:4;stroke-opacity:1;stroke-dasharray:none;marker-start:url(#DotS);marker-mid:none;marker-end:url(#DotS)"
       d="m 312.27099,225.05876 -34.60697,-31.51161 -8.67911,-52.56999 15.77122,47.44744 31.07577,32.81763"
       id="path3767-8-1-2-9-1-8"
       inkscape:connector-curvature="0"
       sodipodi:nodetypes="ccccc" />
    <path
       style="fill:none;stroke:#484848;stroke-width:4;stroke-linecap:butt;stroke-linejoin:miter;stroke-miterlimit:4;stroke-opacity:1;stroke-dasharray:none"
       d="m 337.33911,196.47004 35.27744,31.79229 29.58106,44.10933"
       id="path3769-8-5-1-2-2-7"
       inkscape:connector-curvature="0"
       sodipodi:nodetypes="ccc" />
  </g>
  <g
     inkscape:groupmode="layer"
     id="layer8"
     inkscape:label="Frame 8"
     style="display:none">
    <path
       sodipodi:type="arc"
       style="fill:#545454;fill-opacity:1;stroke:#545454;stroke-opacity:1"
       id="path2995-9-7-3-1-4-1-3"
       sodipodi:cx="371.42856"
       sodipodi:cy="283.79074"
       sodipodi:rx="100"
       sodipodi:ry="100"
       d="m 471.42856,283.79074 a 100,100 0 1 1 -200,0 100,100 0 1 1 200,0 z"
       transform="matrix(0.25,0,0,0.25,138.39748,100.36199)" />
    <path
       style="fill:none;stroke:#545454;stroke-width:4;stroke-linecap:butt;stroke-linejoin:miter;stroke-miterlimit:4;stroke-opacity:1;stroke-dasharray:none"
       d="m 249.96018,181.61329 174.42534,81.41149"
       id="path2997-4-1-2-8-3-3-1"
       inkscape:connector-curvature="0"
       sodipodi:nodetypes="cc" />
    <path
       style="fill:none;stroke:#545454;stroke-width:4;stroke-linecap:butt;stroke-linejoin:miter;stroke-miterlimit:4;stroke-opacity:1;stroke-dasharray:none;marker-start:url(#DotS);marker-mid:none;marker-end:url(#DotS)"
       d="m 318.21987,239.04245 -45.57072,-15.28789 -19.82668,-42.3713 24.75055,38.32017 42.58049,12.32307"
       id="path3767-8-1-2-9-1-8-9"
       inkscape:connector-curvature="0"
       sodipodi:nodetypes="ccccc" />
    <path
       style="fill:none;stroke:#545454;stroke-width:4;stroke-linecap:butt;stroke-linejoin:miter;stroke-miterlimit:4;stroke-opacity:1;stroke-dasharray:none"
       d="m 330.77312,219.19847 52.45003,29.26691 32.61152,20.37075"
       id="path3769-8-5-1-2-2-7-8"
       inkscape:connector-curvature="0"
       sodipodi:nodetypes="ccc" />
  </g>
  <g
     inkscape:groupmode="layer"
     id="layer9"
     inkscape:label="Frame 9"
     style="display:none">
    <path
       sodipodi:type="arc"
       style="fill:#606060;fill-opacity:1;stroke:#606060;stroke-opacity:1"
       id="path2995-9-7-3-1-4-1-3-8"
       sodipodi:cx="371.42856"
       sodipodi:cy="283.79074"
       sodipodi:rx="100"
       sodipodi:ry="100"
       d="m 471.42856,283.79074 a 100,100 0 1 1 -200,0 100,100 0 1 1 200,0 z"
       transform="matrix(0.25,0,0,0.25,128.80103,137.23256)" />
    <path
       style="fill:none;stroke:#606060;stroke-width:4;stroke-linecap:butt;stroke-linejoin:miter;stroke-miterlimit:4;stroke-opacity:1;stroke-dasharray:none"
       d="m 245.91957,212.92802 180.48626,42.52062"
       id="path2997-4-1-2-8-3-3-1-6"
       inkscape:connector-curvature="0"
       sodipodi:nodetypes="cc" />
    <path
       style="fill:none;stroke:#606060;stroke-width:4;stroke-linecap:butt;stroke-linejoin:miter;stroke-miterlimit:4;stroke-opacity:1;stroke-dasharray:none;marker-start:url(#DotS);marker-mid:none;marker-end:url(#DotS)"
       d="m 322.28586,238.59865 -43.18275,1.29297 -33.35171,-26.68855 28.39813,20.91298 45.43763,12.40538"
       id="path3767-8-1-2-9-1-8-9-0"
       inkscape:connector-curvature="0"
       sodipodi:nodetypes="ccccc" />
    <path
       style="fill:none;stroke:#606060;stroke-width:4;stroke-linecap:butt;stroke-linejoin:miter;stroke-miterlimit:4;stroke-opacity:1;stroke-dasharray:none"
       d="m 326.3537,231.82538 56.86945,16.64 32.61152,20.37075"
       id="path3769-8-5-1-2-2-7-8-2"
       inkscape:connector-curvature="0"
       sodipodi:nodetypes="ccc" />
  </g>
  <g
     inkscape:groupmode="layer"
     id="layer10"
     inkscape:label="Frame 10"
     style="display:inline">
    <path
       sodipodi:type="arc"
       style="fill:#6c6c6c;stroke:#6c6c6c;fill-opacity:1;stroke-opacity:1"
       id="path2995-9-7-3-1-4-1-3-8-9"
       sodipodi:cx="371.42856"
       sodipodi:cy="283.79074"
       sodipodi:rx="100"
       sodipodi:ry="100"
       d="m 471.42856,283.79074 a 100,100 0 1 1 -200,0 100,100 0 1 1 200,0 z"
       transform="matrix(0.25,0,0,0.25,116.6792,185.05231)" />
    <path
       style="fill:#6c6c6c;stroke:#6c6c6c;stroke-width:4;stroke-linecap:butt;stroke-linejoin:miter;stroke-miterlimit:4;stroke-opacity:1;stroke-dasharray:none;fill-opacity:1"
       d="m 227.73683,255.35443 106.15303,-0.71051 92.51597,0.80472"
       id="path2997-4-1-2-8-3-3-1-6-0"
       inkscape:connector-curvature="0"
       sodipodi:nodetypes="ccc" />
    <path
       style="fill:#6c6c6c;stroke:#6c6c6c;stroke-width:4;stroke-linecap:butt;stroke-linejoin:miter;stroke-miterlimit:4;stroke-opacity:1;stroke-dasharray:none;marker-start:url(#DotS);marker-mid:none;marker-end:url(#DotS);fill-opacity:1"
       d="m 329.4628,254.36679 -51.74801,0 -45.09537,0 45.41227,0 47.76867,0"
       id="path3767-8-1-2-9-1-8-9-0-0"
       inkscape:connector-curvature="0"
       sodipodi:nodetypes="ccccc" />
  </g>
</svg>
