<?xml version="1.0" encoding="UTF-8" standalone="no"?>
<!-- Created with Inkscape (http://www.inkscape.org/) -->

<svg
   xmlns:dc="http://purl.org/dc/elements/1.1/"
   xmlns:cc="http://creativecommons.org/ns#"
   xmlns:rdf="http://www.w3.org/1999/02/22-rdf-syntax-ns#"
   xmlns:svg="http://www.w3.org/2000/svg"
   xmlns="http://www.w3.org/2000/svg"
   xmlns:sodipodi="http://sodipodi.sourceforge.net/DTD/sodipodi-0.dtd"
   xmlns:inkscape="http://www.inkscape.org/namespaces/inkscape"
   width="256"
   height="256"
   id="svg2"
   version="1.1"
   inkscape:version="0.48.4 r9939"
   sodipodi:docname="idle.svg"
   enable-background="new"
   inkscape:export-filename="F:\Files\Pictures\DragonPunch\idle\idle10.png"
   inkscape:export-xdpi="90"
   inkscape:export-ydpi="90">
  <defs
     id="defs4">
    <marker
       inkscape:stockid="DotS"
       orient="auto"
       refY="0.0"
       refX="0.0"
       id="DotS"
       style="overflow:visible">
      <path
         id="path3842"
         d="M -2.5,-1.0 C -2.5,1.7600000 -4.7400000,4.0 -7.5,4.0 C -10.260000,4.0 -12.5,1.7600000 -12.5,-1.0 C -12.5,-3.7600000 -10.260000,-6.0 -7.5,-6.0 C -4.7400000,-6.0 -2.5,-3.7600000 -2.5,-1.0 z "
         style="fill-rule:evenodd;stroke:#000000;stroke-width:1.0pt"
         transform="scale(0.2) translate(7.4, 1)" />
    </marker>
    <marker
       inkscape:stockid="DotL"
       orient="auto"
       refY="0.0"
       refX="0.0"
       id="DotL"
       style="overflow:visible">
      <path
         id="path3836"
         d="M -2.5,-1.0 C -2.5,1.7600000 -4.7400000,4.0 -7.5,4.0 C -10.260000,4.0 -12.5,1.7600000 -12.5,-1.0 C -12.5,-3.7600000 -10.260000,-6.0 -7.5,-6.0 C -4.7400000,-6.0 -2.5,-3.7600000 -2.5,-1.0 z "
         style="fill-rule:evenodd;stroke:#000000;stroke-width:1.0pt"
         transform="scale(0.8) translate(7.4, 1)" />
    </marker>
    <marker
       inkscape:stockid="DotS"
       orient="auto"
       refY="0"
       refX="0"
       id="DotS-1"
       style="overflow:visible">
      <path
         inkscape:connector-curvature="0"
         id="path3842-7"
         d="m -2.5,-1 c 0,2.76 -2.24,5 -5,5 -2.76,0 -5,-2.24 -5,-5 0,-2.76 2.24,-5 5,-5 2.76,0 5,2.24 5,5 z"
         style="fill-rule:evenodd;stroke:#000000;stroke-width:1pt"
         transform="matrix(0.2,0,0,0.2,1.48,0.2)" />
    </marker>
    <marker
       inkscape:stockid="DotS"
       orient="auto"
       refY="0"
       refX="0"
       id="marker4781"
       style="overflow:visible">
      <path
         inkscape:connector-curvature="0"
         id="path4783"
         d="m -2.5,-1 c 0,2.76 -2.24,5 -5,5 -2.76,0 -5,-2.24 -5,-5 0,-2.76 2.24,-5 5,-5 2.76,0 5,2.24 5,5 z"
         style="fill-rule:evenodd;stroke:#000000;stroke-width:1pt"
         transform="matrix(0.2,0,0,0.2,1.48,0.2)" />
    </marker>
    <marker
       inkscape:stockid="DotS"
       orient="auto"
       refY="0"
       refX="0"
       id="DotS-11"
       style="overflow:visible">
      <path
         inkscape:connector-curvature="0"
         id="path3842-5"
         d="m -2.5,-1 c 0,2.76 -2.24,5 -5,5 -2.76,0 -5,-2.24 -5,-5 0,-2.76 2.24,-5 5,-5 2.76,0 5,2.24 5,5 z"
         style="fill-rule:evenodd;stroke:#000000;stroke-width:1pt"
         transform="matrix(0.2,0,0,0.2,1.48,0.2)" />
    </marker>
    <marker
       inkscape:stockid="DotS"
       orient="auto"
       refY="0"
       refX="0"
       id="marker4849"
       style="overflow:visible">
      <path
         inkscape:connector-curvature="0"
         id="path4851"
         d="m -2.5,-1 c 0,2.76 -2.24,5 -5,5 -2.76,0 -5,-2.24 -5,-5 0,-2.76 2.24,-5 5,-5 2.76,0 5,2.24 5,5 z"
         style="fill-rule:evenodd;stroke:#000000;stroke-width:1pt"
         transform="matrix(0.2,0,0,0.2,1.48,0.2)" />
    </marker>
    <marker
       inkscape:stockid="DotS"
       orient="auto"
       refY="0"
       refX="0"
       id="DotS-2"
       style="overflow:visible">
      <path
         inkscape:connector-curvature="0"
         id="path3842-3"
         d="m -2.5,-1 c 0,2.76 -2.24,5 -5,5 -2.76,0 -5,-2.24 -5,-5 0,-2.76 2.24,-5 5,-5 2.76,0 5,2.24 5,5 z"
         style="fill-rule:evenodd;stroke:#000000;stroke-width:1pt"
         transform="matrix(0.2,0,0,0.2,1.48,0.2)" />
    </marker>
    <marker
       inkscape:stockid="DotS"
       orient="auto"
       refY="0"
       refX="0"
       id="marker4903"
       style="overflow:visible">
      <path
         inkscape:connector-curvature="0"
         id="path4905"
         d="m -2.5,-1 c 0,2.76 -2.24,5 -5,5 -2.76,0 -5,-2.24 -5,-5 0,-2.76 2.24,-5 5,-5 2.76,0 5,2.24 5,5 z"
         style="fill-rule:evenodd;stroke:#000000;stroke-width:1pt"
         transform="matrix(0.2,0,0,0.2,1.48,0.2)" />
    </marker>
    <marker
       inkscape:stockid="DotS"
       orient="auto"
       refY="0"
       refX="0"
       id="DotS-5"
       style="overflow:visible">
      <path
         inkscape:connector-curvature="0"
         id="path3842-76"
         d="m -2.5,-1 c 0,2.76 -2.24,5 -5,5 -2.76,0 -5,-2.24 -5,-5 0,-2.76 2.24,-5 5,-5 2.76,0 5,2.24 5,5 z"
         style="fill-rule:evenodd;stroke:#000000;stroke-width:1pt"
         transform="matrix(0.2,0,0,0.2,1.48,0.2)" />
    </marker>
    <marker
       inkscape:stockid="DotS"
       orient="auto"
       refY="0"
       refX="0"
       id="marker4969"
       style="overflow:visible">
      <path
         inkscape:connector-curvature="0"
         id="path4971"
         d="m -2.5,-1 c 0,2.76 -2.24,5 -5,5 -2.76,0 -5,-2.24 -5,-5 0,-2.76 2.24,-5 5,-5 2.76,0 5,2.24 5,5 z"
         style="fill-rule:evenodd;stroke:#000000;stroke-width:1pt"
         transform="matrix(0.2,0,0,0.2,1.48,0.2)" />
    </marker>
    <marker
       inkscape:stockid="DotS"
       orient="auto"
       refY="0"
       refX="0"
       id="DotS-9"
       style="overflow:visible">
      <path
         inkscape:connector-curvature="0"
         id="path3842-54"
         d="m -2.5,-1 c 0,2.76 -2.24,5 -5,5 -2.76,0 -5,-2.24 -5,-5 0,-2.76 2.24,-5 5,-5 2.76,0 5,2.24 5,5 z"
         style="fill-rule:evenodd;stroke:#000000;stroke-width:1pt"
         transform="matrix(0.2,0,0,0.2,1.48,0.2)" />
    </marker>
    <marker
       inkscape:stockid="DotS"
       orient="auto"
       refY="0"
       refX="0"
       id="marker5025"
       style="overflow:visible">
      <path
         inkscape:connector-curvature="0"
         id="path5027"
         d="m -2.5,-1 c 0,2.76 -2.24,5 -5,5 -2.76,0 -5,-2.24 -5,-5 0,-2.76 2.24,-5 5,-5 2.76,0 5,2.24 5,5 z"
         style="fill-rule:evenodd;stroke:#000000;stroke-width:1pt"
         transform="matrix(0.2,0,0,0.2,1.48,0.2)" />
    </marker>
    <marker
       inkscape:stockid="DotS"
       orient="auto"
       refY="0"
       refX="0"
       id="DotS-4"
       style="overflow:visible">
      <path
         inkscape:connector-curvature="0"
         id="path3842-1"
         d="m -2.5,-1 c 0,2.76 -2.24,5 -5,5 -2.76,0 -5,-2.24 -5,-5 0,-2.76 2.24,-5 5,-5 2.76,0 5,2.24 5,5 z"
         style="fill-rule:evenodd;stroke:#000000;stroke-width:1pt"
         transform="matrix(0.2,0,0,0.2,1.48,0.2)" />
    </marker>
    <marker
       inkscape:stockid="DotS"
       orient="auto"
       refY="0"
       refX="0"
       id="marker5079"
       style="overflow:visible">
      <path
         inkscape:connector-curvature="0"
         id="path5081"
         d="m -2.5,-1 c 0,2.76 -2.24,5 -5,5 -2.76,0 -5,-2.24 -5,-5 0,-2.76 2.24,-5 5,-5 2.76,0 5,2.24 5,5 z"
         style="fill-rule:evenodd;stroke:#000000;stroke-width:1pt"
         transform="matrix(0.2,0,0,0.2,1.48,0.2)" />
    </marker>
    <marker
       inkscape:stockid="DotS"
       orient="auto"
       refY="0"
       refX="0"
       id="DotS-27"
       style="overflow:visible">
      <path
         inkscape:connector-curvature="0"
         id="path3842-79"
         d="m -2.5,-1 c 0,2.76 -2.24,5 -5,5 -2.76,0 -5,-2.24 -5,-5 0,-2.76 2.24,-5 5,-5 2.76,0 5,2.24 5,5 z"
         style="fill-rule:evenodd;stroke:#000000;stroke-width:1pt"
         transform="matrix(0.2,0,0,0.2,1.48,0.2)" />
    </marker>
    <marker
       inkscape:stockid="DotS"
       orient="auto"
       refY="0"
       refX="0"
       id="marker5133"
       style="overflow:visible">
      <path
         inkscape:connector-curvature="0"
         id="path5135"
         d="m -2.5,-1 c 0,2.76 -2.24,5 -5,5 -2.76,0 -5,-2.24 -5,-5 0,-2.76 2.24,-5 5,-5 2.76,0 5,2.24 5,5 z"
         style="fill-rule:evenodd;stroke:#000000;stroke-width:1pt"
         transform="matrix(0.2,0,0,0.2,1.48,0.2)" />
    </marker>
    <marker
       inkscape:stockid="DotS"
       orient="auto"
       refY="0"
       refX="0"
       id="DotS-50"
       style="overflow:visible">
      <path
         inkscape:connector-curvature="0"
         id="path3842-2"
         d="m -2.5,-1 c 0,2.76 -2.24,5 -5,5 -2.76,0 -5,-2.24 -5,-5 0,-2.76 2.24,-5 5,-5 2.76,0 5,2.24 5,5 z"
         style="fill-rule:evenodd;stroke:#000000;stroke-width:1pt"
         transform="matrix(0.2,0,0,0.2,1.48,0.2)" />
    </marker>
    <marker
       inkscape:stockid="DotS"
       orient="auto"
       refY="0"
       refX="0"
       id="marker5187"
       style="overflow:visible">
      <path
         inkscape:connector-curvature="0"
         id="path5189"
         d="m -2.5,-1 c 0,2.76 -2.24,5 -5,5 -2.76,0 -5,-2.24 -5,-5 0,-2.76 2.24,-5 5,-5 2.76,0 5,2.24 5,5 z"
         style="fill-rule:evenodd;stroke:#000000;stroke-width:1pt"
         transform="matrix(0.2,0,0,0.2,1.48,0.2)" />
    </marker>
    <marker
       inkscape:stockid="DotS"
       orient="auto"
       refY="0"
       refX="0"
       id="DotS-8"
       style="overflow:visible">
      <path
         inkscape:connector-curvature="0"
         id="path3842-6"
         d="m -2.5,-1 c 0,2.76 -2.24,5 -5,5 -2.76,0 -5,-2.24 -5,-5 0,-2.76 2.24,-5 5,-5 2.76,0 5,2.24 5,5 z"
         style="fill-rule:evenodd;stroke:#000000;stroke-width:1pt"
         transform="matrix(0.2,0,0,0.2,1.48,0.2)" />
    </marker>
    <marker
       inkscape:stockid="DotS"
       orient="auto"
       refY="0"
       refX="0"
       id="marker5241"
       style="overflow:visible">
      <path
         inkscape:connector-curvature="0"
         id="path5243"
         d="m -2.5,-1 c 0,2.76 -2.24,5 -5,5 -2.76,0 -5,-2.24 -5,-5 0,-2.76 2.24,-5 5,-5 2.76,0 5,2.24 5,5 z"
         style="fill-rule:evenodd;stroke:#000000;stroke-width:1pt"
         transform="matrix(0.2,0,0,0.2,1.48,0.2)" />
    </marker>
    <marker
       inkscape:stockid="DotS"
       orient="auto"
       refY="0"
       refX="0"
       id="DotS-6"
       style="overflow:visible">
      <path
         inkscape:connector-curvature="0"
         id="path3842-13"
         d="m -2.5,-1 c 0,2.76 -2.24,5 -5,5 -2.76,0 -5,-2.24 -5,-5 0,-2.76 2.24,-5 5,-5 2.76,0 5,2.24 5,5 z"
         style="fill-rule:evenodd;stroke:#000000;stroke-width:1pt"
         transform="matrix(0.2,0,0,0.2,1.48,0.2)" />
    </marker>
    <marker
       inkscape:stockid="DotS"
       orient="auto"
       refY="0"
       refX="0"
       id="marker5315"
       style="overflow:visible">
      <path
         inkscape:connector-curvature="0"
         id="path5317"
         d="m -2.5,-1 c 0,2.76 -2.24,5 -5,5 -2.76,0 -5,-2.24 -5,-5 0,-2.76 2.24,-5 5,-5 2.76,0 5,2.24 5,5 z"
         style="fill-rule:evenodd;stroke:#000000;stroke-width:1pt"
         transform="matrix(0.2,0,0,0.2,1.48,0.2)" />
    </marker>
  </defs>
  <sodipodi:namedview
     id="base"
     pagecolor="#ffffff"
     bordercolor="#666666"
     borderopacity="1.0"
     inkscape:pageopacity="0.0"
     inkscape:pageshadow="2"
     inkscape:zoom="1.979899"
     inkscape:cx="93.112078"
     inkscape:cy="155.21209"
     inkscape:document-units="px"
     inkscape:current-layer="layer11"
     showgrid="false"
     inkscape:window-width="1920"
     inkscape:window-height="1017"
     inkscape:window-x="-8"
     inkscape:window-y="-8"
     inkscape:window-maximized="1"
     inkscape:object-paths="false"
     showguides="true"
     inkscape:guide-bbox="true" />
  <metadata
     id="metadata7">
    <rdf:RDF>
      <cc:Work
         rdf:about="">
        <dc:format>image/svg+xml</dc:format>
        <dc:type
           rdf:resource="http://purl.org/dc/dcmitype/StillImage" />
        <dc:title></dc:title>
      </cc:Work>
    </rdf:RDF>
  </metadata>
  <g
     inkscape:groupmode="layer"
     id="layer2"
     inkscape:label="Frame 1"
     transform="translate(0,-796.36218)"
     style="display:inline">
    <g
       id="g4831">
      <path
         transform="matrix(0.25,0,0,0.25,29.37486,766.41449)"
         d="m 471.42856,283.79074 a 100,100 0 1 1 -200,0 100,100 0 1 1 200,0 z"
         sodipodi:ry="100"
         sodipodi:rx="100"
         sodipodi:cy="283.79074"
         sodipodi:cx="371.42856"
         id="path2995"
         style="fill:#000000;stroke:none"
         sodipodi:type="arc" />
      <path
         sodipodi:nodetypes="ccc"
         inkscape:connector-curvature="0"
         id="path2997"
         d="m 120.73452,860.79777 0,98.69744 35.52936,94.84099"
         style="fill:none;stroke:#000000;stroke-width:4;stroke-linecap:butt;stroke-linejoin:miter;stroke-miterlimit:4;stroke-opacity:1;stroke-dasharray:none" />
      <path
         sodipodi:nodetypes="ccccc"
         transform="translate(0,796.36218)"
         inkscape:connector-curvature="0"
         id="path3767"
         d="M 149.80131,82.168591 134.34699,124.97934 121.07143,69.256339 154.86695,110.53082 164.7549,68.893032"
         style="fill:none;stroke:#000000;stroke-width:4;stroke-linecap:butt;stroke-linejoin:miter;stroke-miterlimit:4;stroke-opacity:1;stroke-dasharray:none;marker-start:url(#DotS);marker-mid:none;marker-end:url(#DotS)" />
      <path
         sodipodi:nodetypes="ccc"
         transform="translate(0,796.36218)"
         inkscape:connector-curvature="0"
         id="path3769"
         d="M 120.73526,163.135 105,219.92857 73.214286,256.71429"
         style="fill:none;stroke:#000000;stroke-width:4;stroke-linecap:butt;stroke-linejoin:miter;stroke-miterlimit:4;stroke-opacity:1;stroke-dasharray:none" />
    </g>
  </g>
  <g
     inkscape:groupmode="layer"
     id="layer3"
     inkscape:label="Frame 2"
     transform="translate(0,-796.36218)"
     style="display:none">
    <g
       id="g4885">
      <path
         transform="matrix(0.25,0,0,0.25,29.37486,768.41449)"
         d="m 471.42856,283.79074 a 100,100 0 1 1 -200,0 100,100 0 1 1 200,0 z"
         sodipodi:ry="100"
         sodipodi:rx="100"
         sodipodi:cy="283.79074"
         sodipodi:cx="371.42856"
         id="path2995-7"
         style="fill:#000000;stroke:none"
         sodipodi:type="arc" />
      <path
         sodipodi:nodetypes="ccc"
         inkscape:connector-curvature="0"
         id="path2997-6"
         d="m 120.73452,860.79777 0,98.69744 35.52936,94.84099"
         style="fill:none;stroke:#000000;stroke-width:4;stroke-linecap:butt;stroke-linejoin:miter;stroke-miterlimit:4;stroke-opacity:1;stroke-dasharray:none" />
      <path
         sodipodi:nodetypes="ccccc"
         inkscape:connector-curvature="0"
         id="path3767-1"
         d="m 149.80131,880.53077 -15.45432,42.81075 -13.27556,-55.723 33.79552,41.27448 9.88795,-41.63779"
         style="fill:none;stroke:#000000;stroke-width:4;stroke-linecap:butt;stroke-linejoin:miter;stroke-miterlimit:4;stroke-opacity:1;stroke-dasharray:none;marker-start:url(#DotS);marker-mid:none;marker-end:url(#DotS)" />
      <path
         sodipodi:nodetypes="ccc"
         inkscape:connector-curvature="0"
         id="path3769-4"
         d="M 120.73526,959.49718 105,1016.2907 73.214286,1053.0765"
         style="fill:none;stroke:#000000;stroke-width:4;stroke-linecap:butt;stroke-linejoin:miter;stroke-miterlimit:4;stroke-opacity:1;stroke-dasharray:none" />
    </g>
  </g>
  <g
     inkscape:groupmode="layer"
     id="layer4"
     inkscape:label="Frame 3"
     transform="translate(0,-796.36218)"
     style="display:none">
    <path
       sodipodi:type="arc"
       style="fill:#000000;stroke:none"
       id="path2995-7-2"
       sodipodi:cx="371.42856"
       sodipodi:cy="283.79074"
       sodipodi:rx="100"
       sodipodi:ry="100"
       d="m 471.42856,283.79074 a 100,100 0 1 1 -200,0 100,100 0 1 1 200,0 z"
       transform="matrix(0.25,0,0,0.25,29.37486,770.41449)" />
    <path
       style="fill:none;stroke:#000000;stroke-width:4;stroke-linecap:butt;stroke-linejoin:miter;stroke-miterlimit:4;stroke-opacity:1;stroke-dasharray:none"
       d="m 120.73452,860.79777 0,98.69744 35.52936,94.84099"
       id="path2997-6-1"
       inkscape:connector-curvature="0"
       sodipodi:nodetypes="ccc" />
    <path
       style="fill:none;stroke:#000000;stroke-width:4;stroke-linecap:butt;stroke-linejoin:miter;stroke-miterlimit:4;stroke-opacity:1;stroke-dasharray:none;marker-start:url(#DotS);marker-mid:none;marker-end:url(#DotS)"
       d="m 149.80131,882.53077 -15.45432,42.81075 -13.27556,-55.723 33.79552,41.27448 9.88795,-41.63779"
       id="path3767-1-6"
       inkscape:connector-curvature="0"
       sodipodi:nodetypes="ccccc" />
    <path
       style="fill:none;stroke:#000000;stroke-width:4;stroke-linecap:butt;stroke-linejoin:miter;stroke-miterlimit:4;stroke-opacity:1;stroke-dasharray:none"
       d="M 120.73526,959.49718 105,1016.2907 73.214286,1053.0765"
       id="path3769-4-8"
       inkscape:connector-curvature="0"
       sodipodi:nodetypes="ccc" />
  </g>
  <g
     inkscape:groupmode="layer"
     id="layer5"
     inkscape:label="Frame 4"
     transform="translate(0,-796.36218)"
     style="display:none">
    <path
       sodipodi:type="arc"
       style="fill:#000000;stroke:none"
       id="path2995-7-2-8"
       sodipodi:cx="371.42856"
       sodipodi:cy="283.79074"
       sodipodi:rx="100"
       sodipodi:ry="100"
       d="m 471.42856,283.79074 a 100,100 0 1 1 -200,0 100,100 0 1 1 200,0 z"
       transform="matrix(0.25,0,0,0.25,29.37486,772.41449)" />
    <path
       style="fill:none;stroke:#000000;stroke-width:4;stroke-linecap:butt;stroke-linejoin:miter;stroke-miterlimit:4;stroke-opacity:1;stroke-dasharray:none"
       d="m 120.73452,860.79777 0,98.69744 35.52936,94.84099"
       id="path2997-6-1-9"
       inkscape:connector-curvature="0"
       sodipodi:nodetypes="ccc" />
    <path
       style="fill:none;stroke:#000000;stroke-width:4;stroke-linecap:butt;stroke-linejoin:miter;stroke-miterlimit:4;stroke-opacity:1;stroke-dasharray:none;marker-start:url(#DotS);marker-mid:none;marker-end:url(#DotS)"
       d="m 149.80131,884.53077 -15.45432,42.81075 -13.27556,-55.723 33.79552,41.27448 9.88795,-41.63779"
       id="path3767-1-6-2"
       inkscape:connector-curvature="0"
       sodipodi:nodetypes="ccccc" />
    <path
       style="fill:none;stroke:#000000;stroke-width:4;stroke-linecap:butt;stroke-linejoin:miter;stroke-miterlimit:4;stroke-opacity:1;stroke-dasharray:none"
       d="M 120.73526,959.49718 105,1016.2907 73.214286,1053.0765"
       id="path3769-4-8-7"
       inkscape:connector-curvature="0"
       sodipodi:nodetypes="ccc" />
  </g>
  <g
     inkscape:groupmode="layer"
     id="layer6"
     inkscape:label="Frame 5"
     transform="translate(0,-796.36218)"
     style="display:none">
    <path
       sodipodi:type="arc"
       style="fill:#000000;stroke:none"
       id="path2995-7-2-8-1"
       sodipodi:cx="371.42856"
       sodipodi:cy="283.79074"
       sodipodi:rx="100"
       sodipodi:ry="100"
       d="m 471.42856,283.79074 a 100,100 0 1 1 -200,0 100,100 0 1 1 200,0 z"
       transform="matrix(0.25,0,0,0.25,29.37486,774.41449)" />
    <path
       style="fill:none;stroke:#000000;stroke-width:4;stroke-linecap:butt;stroke-linejoin:miter;stroke-miterlimit:4;stroke-opacity:1;stroke-dasharray:none"
       d="m 120.73452,860.79777 0,98.69744 35.52936,94.84099"
       id="path2997-6-1-9-2"
       inkscape:connector-curvature="0"
       sodipodi:nodetypes="ccc" />
    <path
       style="fill:none;stroke:#000000;stroke-width:4;stroke-linecap:butt;stroke-linejoin:miter;stroke-miterlimit:4;stroke-opacity:1;stroke-dasharray:none;marker-start:url(#DotS);marker-mid:none;marker-end:url(#DotS)"
       d="m 149.80131,886.53077 -15.45432,42.81075 -13.27556,-55.723 33.79552,41.27448 9.88795,-41.63779"
       id="path3767-1-6-2-3"
       inkscape:connector-curvature="0"
       sodipodi:nodetypes="ccccc" />
    <path
       style="fill:none;stroke:#000000;stroke-width:4;stroke-linecap:butt;stroke-linejoin:miter;stroke-miterlimit:4;stroke-opacity:1;stroke-dasharray:none"
       d="M 120.73526,959.49718 105,1016.2907 73.214286,1053.0765"
       id="path3769-4-8-7-3"
       inkscape:connector-curvature="0"
       sodipodi:nodetypes="ccc" />
  </g>
  <g
     inkscape:groupmode="layer"
     id="layer7"
     inkscape:label="Frame 6"
     transform="translate(0,-796.36218)"
     style="display:none">
    <g
       id="g5115">
      <path
         transform="matrix(0.25,0,0,0.25,29.37486,774.41449)"
         d="m 471.42856,283.79074 a 100,100 0 1 1 -200,0 100,100 0 1 1 200,0 z"
         sodipodi:ry="100"
         sodipodi:rx="100"
         sodipodi:cy="283.79074"
         sodipodi:cx="371.42856"
         id="path2995-7-2-8-1-3"
         style="fill:#000000;stroke:none"
         sodipodi:type="arc" />
      <path
         sodipodi:nodetypes="ccc"
         inkscape:connector-curvature="0"
         id="path2997-6-1-9-2-8"
         d="m 120.73452,860.79777 0,98.69744 35.52936,94.84099"
         style="fill:none;stroke:#000000;stroke-width:4;stroke-linecap:butt;stroke-linejoin:miter;stroke-miterlimit:4;stroke-opacity:1;stroke-dasharray:none" />
      <path
         sodipodi:nodetypes="ccccc"
         inkscape:connector-curvature="0"
         id="path3767-1-6-2-3-7"
         d="m 149.80131,886.53077 -15.45432,42.81075 -13.27556,-55.723 33.79552,41.27448 9.88795,-41.63779"
         style="fill:none;stroke:#000000;stroke-width:4;stroke-linecap:butt;stroke-linejoin:miter;stroke-miterlimit:4;stroke-opacity:1;stroke-dasharray:none;marker-start:url(#DotS);marker-mid:none;marker-end:url(#DotS)" />
      <path
         sodipodi:nodetypes="ccc"
         inkscape:connector-curvature="0"
         id="path3769-4-8-7-3-4"
         d="M 120.73526,959.49718 105,1016.2907 73.214286,1053.0765"
         style="fill:none;stroke:#000000;stroke-width:4;stroke-linecap:butt;stroke-linejoin:miter;stroke-miterlimit:4;stroke-opacity:1;stroke-dasharray:none" />
    </g>
  </g>
  <g
     inkscape:groupmode="layer"
     id="layer8"
     inkscape:label="Frame 7"
     transform="translate(0,-796.36218)"
     style="display:none">
    <g
       id="g5169">
      <path
         transform="matrix(0.25,0,0,0.25,29.37486,770.41449)"
         d="m 471.42856,283.79074 a 100,100 0 1 1 -200,0 100,100 0 1 1 200,0 z"
         sodipodi:ry="100"
         sodipodi:rx="100"
         sodipodi:cy="283.79074"
         sodipodi:cx="371.42856"
         id="path2995-7-2-8-1-3-1"
         style="fill:#000000;stroke:none"
         sodipodi:type="arc" />
      <path
         sodipodi:nodetypes="ccc"
         inkscape:connector-curvature="0"
         id="path2997-6-1-9-2-8-9"
         d="m 120.73452,860.79777 0,98.69744 35.52936,94.84099"
         style="fill:none;stroke:#000000;stroke-width:4;stroke-linecap:butt;stroke-linejoin:miter;stroke-miterlimit:4;stroke-opacity:1;stroke-dasharray:none" />
      <path
         sodipodi:nodetypes="ccccc"
         inkscape:connector-curvature="0"
         id="path3767-1-6-2-3-7-8"
         d="m 149.80131,882.53077 -15.45432,42.81075 -13.27556,-55.723 33.79552,41.27448 9.88795,-41.63779"
         style="fill:none;stroke:#000000;stroke-width:4;stroke-linecap:butt;stroke-linejoin:miter;stroke-miterlimit:4;stroke-opacity:1;stroke-dasharray:none;marker-start:url(#DotS);marker-mid:none;marker-end:url(#DotS)" />
      <path
         sodipodi:nodetypes="ccc"
         inkscape:connector-curvature="0"
         id="path3769-4-8-7-3-4-6"
         d="M 120.73526,959.49718 105,1016.2907 73.214286,1053.0765"
         style="fill:none;stroke:#000000;stroke-width:4;stroke-linecap:butt;stroke-linejoin:miter;stroke-miterlimit:4;stroke-opacity:1;stroke-dasharray:none" />
    </g>
  </g>
  <g
     inkscape:groupmode="layer"
     id="layer9"
     inkscape:label="Frame 8"
     transform="translate(0,-796.36218)"
     style="display:none">
    <path
       sodipodi:type="arc"
       style="fill:#000000;stroke:none"
       id="path2995-7-2-8-1-3-1-6"
       sodipodi:cx="371.42856"
       sodipodi:cy="283.79074"
       sodipodi:rx="100"
       sodipodi:ry="100"
       d="m 471.42856,283.79074 a 100,100 0 1 1 -200,0 100,100 0 1 1 200,0 z"
       transform="matrix(0.25,0,0,0.25,29.37486,768.41449)" />
    <path
       style="fill:none;stroke:#000000;stroke-width:4;stroke-linecap:butt;stroke-linejoin:miter;stroke-miterlimit:4;stroke-opacity:1;stroke-dasharray:none"
       d="m 120.73452,860.79777 0,98.69744 35.52936,94.84099"
       id="path2997-6-1-9-2-8-9-0"
       inkscape:connector-curvature="0"
       sodipodi:nodetypes="ccc" />
    <path
       style="fill:none;stroke:#000000;stroke-width:4;stroke-linecap:butt;stroke-linejoin:miter;stroke-miterlimit:4;stroke-opacity:1;stroke-dasharray:none;marker-start:url(#DotS);marker-mid:none;marker-end:url(#DotS)"
       d="m 149.80131,880.53077 -15.45432,42.81075 -13.27556,-55.723 33.79552,41.27448 9.88795,-41.63779"
       id="path3767-1-6-2-3-7-8-2"
       inkscape:connector-curvature="0"
       sodipodi:nodetypes="ccccc" />
    <path
       style="fill:none;stroke:#000000;stroke-width:4;stroke-linecap:butt;stroke-linejoin:miter;stroke-miterlimit:4;stroke-opacity:1;stroke-dasharray:none"
       d="M 120.73526,959.49718 105,1016.2907 73.214286,1053.0765"
       id="path3769-4-8-7-3-4-6-4"
       inkscape:connector-curvature="0"
       sodipodi:nodetypes="ccc" />
  </g>
  <g
     inkscape:groupmode="layer"
     id="layer10"
     inkscape:label="Frame 9"
     transform="translate(0,-796.36218)"
     style="display:none">
    <path
       sodipodi:type="arc"
       style="fill:#000000;stroke:none"
       id="path2995-7-2-8-1-3-1-6-0"
       sodipodi:cx="371.42856"
       sodipodi:cy="283.79074"
       sodipodi:rx="100"
       sodipodi:ry="100"
       d="m 471.42856,283.79074 a 100,100 0 1 1 -200,0 100,100 0 1 1 200,0 z"
       transform="matrix(0.25,0,0,0.25,29.37486,766.41449)" />
    <path
       style="fill:none;stroke:#000000;stroke-width:4;stroke-linecap:butt;stroke-linejoin:miter;stroke-miterlimit:4;stroke-opacity:1;stroke-dasharray:none"
       d="m 120.73452,851.7064 0,107.78881 35.52936,94.84099"
       id="path2997-6-1-9-2-8-9-0-9"
       inkscape:connector-curvature="0"
       sodipodi:nodetypes="ccc" />
    <path
       style="fill:none;stroke:#000000;stroke-width:4;stroke-linecap:butt;stroke-linejoin:miter;stroke-miterlimit:4;stroke-opacity:1;stroke-dasharray:none;marker-start:url(#DotS);marker-mid:none;marker-end:url(#DotS)"
       d="m 149.80131,878.53077 -15.45432,42.81075 -13.27556,-55.723 33.79552,41.27448 9.88795,-41.63779"
       id="path3767-1-6-2-3-7-8-2-0"
       inkscape:connector-curvature="0"
       sodipodi:nodetypes="ccccc" />
    <path
       style="fill:none;stroke:#000000;stroke-width:4;stroke-linecap:butt;stroke-linejoin:miter;stroke-miterlimit:4;stroke-opacity:1;stroke-dasharray:none"
       d="M 120.73526,959.49718 105,1016.2907 73.214286,1053.0765"
       id="path3769-4-8-7-3-4-6-4-0"
       inkscape:connector-curvature="0"
       sodipodi:nodetypes="ccc" />
  </g>
  <g
     inkscape:groupmode="layer"
     id="layer11"
     inkscape:label="Frame 10"
     transform="translate(0,-796.36218)"
     style="display:inline">
    <g
       id="g5371">
      <path
         transform="matrix(0.25,0,0,0.25,29.37486,766.41449)"
         d="m 471.42856,283.79074 a 100,100 0 1 1 -200,0 100,100 0 1 1 200,0 z"
         sodipodi:ry="100"
         sodipodi:rx="100"
         sodipodi:cy="283.79074"
         sodipodi:cx="371.42856"
         id="path2995-7-2-8-1-3-1-6-0-9"
         style="fill:#000000;stroke:none"
         sodipodi:type="arc" />
      <path
         sodipodi:nodetypes="ccc"
         inkscape:connector-curvature="0"
         id="path2997-6-1-9-2-8-9-0-9-3"
         d="m 120.73452,851.7064 0,107.78881 35.52936,94.84099"
         style="fill:none;stroke:#000000;stroke-width:4;stroke-linecap:butt;stroke-linejoin:miter;stroke-miterlimit:4;stroke-opacity:1;stroke-dasharray:none" />
      <path
         sodipodi:nodetypes="ccccc"
         inkscape:connector-curvature="0"
         id="path3767-1-6-2-3-7-8-2-0-4"
         d="m 149.80131,878.53077 -15.45432,42.81075 -13.27556,-55.723 33.79552,41.27448 9.88795,-41.63779"
         style="fill:none;stroke:#000000;stroke-width:4;stroke-linecap:butt;stroke-linejoin:miter;stroke-miterlimit:4;stroke-opacity:1;stroke-dasharray:none;marker-start:url(#DotS);marker-mid:none;marker-end:url(#DotS)" />
      <path
         sodipodi:nodetypes="ccc"
         inkscape:connector-curvature="0"
         id="path3769-4-8-7-3-4-6-4-0-4"
         d="M 120.73526,959.49718 105,1016.2907 73.214286,1053.0765"
         style="fill:none;stroke:#000000;stroke-width:4;stroke-linecap:butt;stroke-linejoin:miter;stroke-miterlimit:4;stroke-opacity:1;stroke-dasharray:none" />
    </g>
  </g>
</svg>
